<?xml version="1.0" encoding="UTF-8" standalone="no"?>
<!-- Created with Inkscape (http://www.inkscape.org/) -->

<svg
   xmlns:dc="http://purl.org/dc/elements/1.1/"
   xmlns:cc="http://creativecommons.org/ns#"
   xmlns:rdf="http://www.w3.org/1999/02/22-rdf-syntax-ns#"
   xmlns:svg="http://www.w3.org/2000/svg"
   xmlns="http://www.w3.org/2000/svg"
   xmlns:sodipodi="http://sodipodi.sourceforge.net/DTD/sodipodi-0.dtd"
   xmlns:inkscape="http://www.inkscape.org/namespaces/inkscape"
   width="210mm"
   height="297mm"
   viewBox="0 0 210 297"
   version="1.1"
   id="svg8"
   inkscape:version="0.92.1 r15371"
   sodipodi:docname="phoenix.svg">
  <defs
     id="defs2" />
  <sodipodi:namedview
     id="base"
     pagecolor="#ffffff"
     bordercolor="#666666"
     borderopacity="1.0"
     inkscape:pageopacity="0.0"
     inkscape:pageshadow="2"
     inkscape:zoom="0.98994949"
     inkscape:cx="409.39776"
     inkscape:cy="433.41182"
     inkscape:document-units="mm"
     inkscape:current-layer="layer1"
     showgrid="false"
     showguides="true"
     inkscape:guide-bbox="true"
     inkscape:window-width="1920"
     inkscape:window-height="1020"
     inkscape:window-x="0"
     inkscape:window-y="31"
     inkscape:window-maximized="1" />
  <metadata
     id="metadata5">
    <rdf:RDF>
      <cc:Work
         rdf:about="">
        <dc:format>image/svg+xml</dc:format>
        <dc:type
           rdf:resource="http://purl.org/dc/dcmitype/StillImage" />
        <dc:title></dc:title>
      </cc:Work>
    </rdf:RDF>
  </metadata>
  <g
     inkscape:label="Layer 1"
     inkscape:groupmode="layer"
     id="layer1">
    <path
       style="fill:none;stroke:#000000;stroke-width:1.06929862px;stroke-linecap:butt;stroke-linejoin:miter;stroke-opacity:1"
       d="m 397.62109,399.77148 c -61.84623,-0.0531 -90.05851,25.46176 -96.77343,36.2168 0,0 56.1046,4.74933 64.89648,28.41602 1.07207,2.88589 2.69899,3.56047 4.56641,39.30664 1.87315,35.85592 -39.8668,-34.73078 -158.41016,-23.00782 -106.2063,10.50293 -205.6180768,40.23082 -211.30468688,43.53126 10e-9,0 7.78692698,40.71903 32.48046888,55.54687 4.688725,2.81545 141.242858,-61.59177 144.638668,-56.62891 3.21193,4.69414 -132.993019,69.43454 -132.054684,75.41602 3.519927,22.438 21.634353,42.24288 50.898438,58.65234 3.196539,1.79241 78.697876,-41.1897 81.458986,-38.84375 2.61547,2.22221 -68.20117,48.26367 -68.20117,48.26367 49.62333,58.93338 57.76023,49.79198 66.96484,53.08985 0,0 98.34741,-103.41217 102.85742,-100.32422 4.67991,3.20425 -71.70415,100.29604 -67.6871,103.70858 45.06679,43.4146 82.88544,34.55539 81.30885,31.68863 36.61131,-69.57908 41.06952,-87.77799 60.9095,-93.46362 19.03801,-5.45581 27.74184,38.67599 29.91016,79.03711 4.04844,75.35626 26.51919,172.46421 3.42606,166.27149 -29.58459,3.96961 -94.84324,-65.23318 -97.5745,-108.62305 -0.93864,-14.91159 -13.16695,52.74966 26.16797,72.80859 55.47176,33.75315 58.04942,81.48326 12.25781,50.1543 1.42873,33.74918 26.23147,29.92749 31.28906,28.02344 80.68937,-71.52724 1.91706,82.77328 -54.95703,29.86133 -16.48242,-15.33418 44.70194,89.21995 87.40039,-7.58594 5.32007,-12.06161 4.30215,-57.0741 34.37305,-8.71875 21.29333,21.94586 45.41919,19.89776 49.70117,-37.89844 -17.67518,52.57036 -99.34117,-7.17234 -51.53515,-13.35742 29.94572,-3.87436 59.56571,-44.76724 69.64257,-52.72852 -125.40703,114.75466 -79.83465,-35.68157 -90.64062,-118.20703 0.53408,-80.63637 13.8181,-84.71476 29.54492,-79.18945 25.7284,9.03917 23.51286,46.41668 48.46694,93.13158 5.46838,11.61302 49.42269,1.02046 85.32798,-35.68431 1.73836,-1.3773 -77.00815,-96.46251 -71.62304,-99.00586 5.42324,-2.56139 99.91164,98.47437 100.10742,100.84179 0.93736,11.3266 57.15819,-37.27896 73.30078,-53.38867 1.38319,-1.38036 -75.75581,-46.79621 -72.96289,-48.83984 3.2245,-2.35941 81.22082,39.00212 83.18164,38.11133 42.66104,-19.38097 62.84036,-47.67698 73.63477,-64.13868 0,0 -161.42811,-64.83154 -157.36719,-71.92382 3.31929,-5.79708 165.72851,51.49414 165.72851,51.49414 17.69435,-12.52706 27.59071,-42.00101 19.36328,-49.83789 0,0 -83.13056,-13.78131 -177.39062,-34.69336 -121.65426,-26.98961 -190.9788,44.03386 -189.40039,19.18554 1.57463,-24.7892 -1.90336,-32.86204 1.53125,-50.65625 19.59904,-15.48502 51.36914,8.57813 51.36914,8.57813 0,0 46.82288,-38.16071 -35.70703,-62.33203 -11.97466,-1.55463 -22.99494,-2.24912 -33.11524,-2.25782 z M 293.26042,754.80346 c -0.0667,0.077 0.0668,-0.0771 0,0 0.30233,-0.10995 0.16063,0.0491 0,0 z m 190.92122,56.51685 c -0.16814,-0.0267 -0.30497,0.0412 -0.40625,0.21485 0.33774,0.0677 0.8624,0.31834 1.47461,0.67187 -0.42172,-0.52363 -0.78913,-0.84233 -1.06836,-0.88672 z m 1.06836,0.88672 c 3.38747,4.20611 10.52454,22.38473 7.85742,30.86524 -2.52344,8.02363 -21.35937,20.83398 -21.35937,20.83398 -0.0152,3.77325 21.48327,-5.23701 29.63476,-20.50781 3.27106,-14.84581 -10.82284,-28.12509 -16.13281,-31.19141 z m -205.60352,34.65039 c -4.9116,7.93153 1.71169,18.16164 4.79297,21.1582 3.3327,3.12027 12.61166,5.81989 17.96094,6.40821 0,0 -8.41966,-2.24047 -14.72656,-8.55274 -7.89714,-6.63756 -8.31735,-12.49629 -8.02735,-19.01367 z m 196.95118,58.1543 c -0.25219,-0.003 -0.39649,0.006 -0.39649,0.006 9.90206,9.85205 5.78573,26.21694 3.39453,28.37304 1.59111,-0.93161 7.95733,-9.4323 6.85352,-19.19531 -0.96587,-8.54267 -8.08624,-9.16217 -9.85156,-9.18359 z m -157.42383,7.19336 c -2.38803,8.34319 -3.92738,20.20545 9.64648,28.58984 -4.21685,-8.06241 -11.39167,-19.57642 -9.64648,-28.58984 z m -21.01172,59.48828 c -0.17764,0.12541 -0.38265,0.40794 -0.59961,0.76367 0.14779,-0.18374 0.59961,-0.76367 0.59961,-0.76367 z m -0.59961,0.76367 c -1.61048,2.00222 -10.81815,13.67052 -10.83008,19.36133 -0.0129,6.21309 7.72852,13.30864 7.72852,13.30864 -4.91625,-6.91664 0.38074,-28.2088 3.10156,-32.66997 z m 182.53711,1.23047 c 0,0 -0.68553,2.22325 -1.74219,5.13477 0.77182,-1.51813 1.37473,-3.21428 1.74219,-5.13477 z m -1.74219,5.13477 c -7.02867,13.82502 -29.20314,11.61189 -37.35742,4.89453 2.46872,3.43385 6.15578,8.10932 9.49609,9.48047 5.30007,2.17557 12.62974,1.89056 17.63868,1.57421 3.92354,-0.24772 7.98766,-9.79093 10.22265,-15.94921 z M 441,983.7168 c -1.91083,-2.65786 -3.11171,-4.59038 -2.73438,-3.55274 0.46182,1.27 1.41795,2.46829 2.73438,3.55274 z m -142.07031,7.43359 c -4.2212,2.63297 -0.64403,15.14861 6.80078,23.27541 7.4448,8.1267 26.7035,10.23 28.95703,4.2207 -5.0679,-0.1165 -20.13698,-7.4654 -23.57227,-10.1465 -5.32258,-3.515 -9.39291,-11.58972 -12.18554,-17.34961 z"
       transform="scale(0.26458333)"
       id="path12"
       inkscape:connector-curvature="0"
       sodipodi:nodetypes="scssscccscscccccsccscccscccsccscccccccccccsscccsccccccccsccccccccccccsccccccccccccccccccccccccccc" />
  </g>
</svg>
